<svg width="20" height="20" viewBox="0 0 20 20" fill="none" xmlns="http://www.w3.org/2000/svg">
<path fill-rule="evenodd" clip-rule="evenodd" d="M5.83335 1.66675C4.72829 1.66675 3.66848 2.10573 2.88708 2.88714C2.10567 3.66854 1.66669 4.72835 1.66669 5.83342V14.1667C1.66669 15.2718 2.10567 16.3316 2.88708 17.113C3.66848 17.8944 4.72829 18.3334 5.83335 18.3334H14.1667C15.2718 18.3334 16.3316 17.8944 17.113 17.113C17.8944 16.3316 18.3334 15.2718 18.3334 14.1667V5.83342C18.3334 4.72835 17.8944 3.66854 17.113 2.88714C16.3316 2.10573 15.2718 1.66675 14.1667 1.66675H5.83335ZM13.1084 8.90342C13.1832 8.82353 13.2416 8.72968 13.2802 8.62723C13.3188 8.52478 13.3368 8.41573 13.3332 8.30631C13.3297 8.19689 13.3046 8.08924 13.2594 7.98952C13.2143 7.88979 13.1499 7.79994 13.07 7.72508C12.9901 7.65023 12.8963 7.59184 12.7938 7.55326C12.6914 7.51467 12.5823 7.49665 12.4729 7.50021C12.3635 7.50377 12.2559 7.52884 12.1561 7.57401C12.0564 7.61917 11.9665 7.68353 11.8917 7.76341L9.32252 10.5051L8.05335 9.37758C7.88707 9.23935 7.67356 9.17116 7.45794 9.18743C7.24231 9.2037 7.04145 9.30315 6.89779 9.46477C6.75413 9.62638 6.67892 9.83752 6.68804 10.0536C6.69716 10.2696 6.78991 10.4737 6.94669 10.6226L8.82169 12.2892C8.98393 12.4334 9.19598 12.5085 9.41276 12.4987C9.62955 12.4889 9.83395 12.3949 9.98252 12.2367L13.1075 8.90342H13.1084Z" fill="#1F4590"/>
</svg>
